<svg xmlns="http://www.w3.org/2000/svg" viewBox="0 0 637.74 110.79"><defs><style>.cls-1{fill:#3769b2}.cls-2{fill:#a2335b}.cls-3{fill:#9a6f8f}.cls-4{fill:#e71c48}.cls-5{fill:#cc56a0}.cls-6{fill:#5157a6}</style></defs><g id="Layer_1" data-name="Layer 1"><path class="cls-1" d="m579.79 66.63-32.08 57.65a12.28 12.28 0 0 1-4.43 4.58 12.1 12.1 0 0 1-6.15 1.74 11.71 11.71 0 0 1-8.53-3.6 11.59 11.59 0 0 1-3.32-8.21 11.73 11.73 0 0 1 1.42-5.68l32.24-57.65a10.49 10.49 0 0 1 9.63-5.69h.32a10.49 10.49 0 0 1 5.84 1.58 11.35 11.35 0 0 1 5.69 6.95 12.49 12.49 0 0 1 .47 3.47 11 11 0 0 1-1.1 4.86Z" transform="translate(-8.95 -19.81)"/><path class="cls-2" d="M58.48 51.05a10.49 10.49 0 0 0-5.84-1.58h-.31a10.5 10.5 0 0 0-9.64 5.69l-1.83 3.27 21.71-3.78a11.85 11.85 0 0 0-4.09-3.6ZM193.48 28.65A11.79 11.79 0 0 0 190 23a9.87 9.87 0 0 0-7.73-3.16h-43.75a12 12 0 0 0-8.37 3.31 12.2 12.2 0 0 0-3.47 8.53 11.38 11.38 0 0 0 3.79 8.69c.35.32.72.61 1.09.89l62.2-10.82a6.9 6.9 0 0 0-.28-1.79ZM80.73 26.28a10.73 10.73 0 0 0-3.48-4.1 8.23 8.23 0 0 0-3.31-1.74 9.64 9.64 0 0 0-3.79-.63 11.38 11.38 0 0 0-6.64 2.05 11.57 11.57 0 0 0-4.1 4.58L49 45.23a15.37 15.37 0 0 1 5.37-.95h1.57A15.62 15.62 0 0 1 61.78 46l.41.25a11.6 11.6 0 0 1 3.06 2.44 11.43 11.43 0 0 1 2.69 3.47l.06.11L92.84 48ZM236.12 22.65a11.29 11.29 0 0 0-7.58-2.84H194.9a14.34 14.34 0 0 1 3.47 4.1 14.14 14.14 0 0 1 2 5.88L237 23.41c-.29-.26-.57-.52-.88-.76Z" transform="translate(-8.95 -19.81)"/><path class="cls-3" d="M10.37 113.07A11.73 11.73 0 0 0 9 118.75a11.59 11.59 0 0 0 3.27 8.25 11.71 11.71 0 0 0 8.53 3.64 12.1 12.1 0 0 0 6.2-1.78 12.28 12.28 0 0 0 4.43-4.58l6.47-11.93-20.74-11.6Z" transform="translate(-8.95 -19.81)"/><path class="cls-4" d="M282.82 51.1a10.41 10.41 0 0 0-5.82-1.58h-.31A10.49 10.49 0 0 0 267 55.2l-32.54 57.87a11.89 11.89 0 0 0 10.42 17.53 11.8 11.8 0 0 0 3.37-.51l38.66-75.36a11.74 11.74 0 0 0-4.09-3.63ZM301 22.18a8.27 8.27 0 0 0-3.32-1.74 9.61 9.61 0 0 0-3.79-.63 11.33 11.33 0 0 0-6.63 2.05 11.52 11.52 0 0 0-4.11 4.58l-10.4 18.79a15.45 15.45 0 0 1 5.37-.95h1.58a15.57 15.57 0 0 1 5.84 1.72l.47.29a15.27 15.27 0 0 1 3 2.4 7.91 7.91 0 0 1 .83.81L303 24a10.41 10.41 0 0 0-2-1.82ZM129.05 112.82 93.22 48.66l-.38-.66L68 52.29l.41.74 39.79 71a13.64 13.64 0 0 0 4.43 4.58 12.1 12.1 0 0 0 6.15 1.74A11.36 11.36 0 0 0 127 127a11.64 11.64 0 0 0 3.63-8.53 10.33 10.33 0 0 0-1.58-5.65ZM237.37 23.81a7.18 7.18 0 0 0-.38-.4l-36.66 6.38v.53c0 .44.06.88.06 1.33v11.84h27.95a11.63 11.63 0 0 0 7.89-3 11 11 0 0 0 3.95-8.68v-.32a10.73 10.73 0 0 0-2.81-7.68ZM193.78 31v-.54l-62.2 10.82c.26.19.52.37.79.54a11.47 11.47 0 0 0 6.17 1.72h31.59v75a12 12 0 0 0 3.31 8.37 12.81 12.81 0 0 0 8.53 3.48 11.19 11.19 0 0 0 8.69-3.79 10.85 10.85 0 0 0 3.15-8.06V32.28c-.02-.46-.02-.9-.03-1.28ZM64.17 58A11.64 11.64 0 0 0 63 55.39c-.14-.26-.3-.5-.46-.74l-21.68 3.78-.54 1-23.21 41.32 20.74 11.6 25.69-46a11 11 0 0 0 1.1-4.9 12.49 12.49 0 0 0-.47-3.45Z" transform="translate(-8.95 -19.81)"/><path class="cls-5" d="M383 61.92a11.12 11.12 0 0 0-3.48 7.89v48.94a12 12 0 0 0 3.32 8.37l.48.39L387.58 59a11.72 11.72 0 0 0-4.58 2.92ZM383.92 22.33a12.37 12.37 0 0 0-3 3.79A11.86 11.86 0 0 0 379.5 31v27.34a16 16 0 0 1 4.42-3.63 16.2 16.2 0 0 1 3.89-1.48l2-33.23a10.83 10.83 0 0 0-5.89 2.33ZM352.81 112.82l-48.32-86.54A11.74 11.74 0 0 0 303 24l-13.15 25.52a12.36 12.36 0 0 1 1.3 1.68 10.59 10.59 0 0 1 .55 1L332 124a13.71 13.71 0 0 0 4.42 4.58 12.16 12.16 0 0 0 6.16 1.74 11.32 11.32 0 0 0 8.21-3.32 11.6 11.6 0 0 0 3.63-8.53 10.25 10.25 0 0 0-1.61-5.65ZM288.51 58a11.38 11.38 0 0 0-.5-1.35 11.16 11.16 0 0 0-1.07-2l-38.66 75.36.48-.16a13.78 13.78 0 0 0 2.31-1.07 12.17 12.17 0 0 0 4.42-4.58l32.39-57.87a11 11 0 0 0 1.1-4.89 12.2 12.2 0 0 0-.47-3.44Z" transform="translate(-8.95 -19.81)"/><path class="cls-3" d="M398.93 61.13a11.15 11.15 0 0 0-7.58-2.69 12.05 12.05 0 0 0-3.77.6l-4.28 68.47a13.69 13.69 0 0 0 4.49 2.52l15.4-40.31V69.81a10.62 10.62 0 0 0-4.26-8.68ZM400.82 24.23a18.92 18.92 0 0 0-3-2.53 12.44 12.44 0 0 0-6.63-1.89 1.16 1.16 0 0 0-.63.16h-.72l-2 33.23a15.71 15.71 0 0 1 3.54-.42 14.17 14.17 0 0 1 6.31 1.42 12.61 12.61 0 0 1 3.79 2.37 21.16 21.16 0 0 1 3.32 2.84 12.91 12.91 0 0 1 2.53 2.37l4.05 3.62 8.76-23.93Z" transform="translate(-8.95 -19.81)"/><path class="cls-6" d="M391.35 130.6a11.15 11.15 0 0 0 8.68-3.79 10.86 10.86 0 0 0 3.16-8.06v-29L387.79 130a11.44 11.44 0 0 0 3.56.6ZM476.78 69.66v49.09a12 12 0 0 0 3.31 8.37 12.21 12.21 0 0 0 8.53 3.48 11.17 11.17 0 0 0 8.69-3.79 10.85 10.85 0 0 0 3.15-8.06V89.88l-19.28-29.1c-.26.21-.52.43-.77.67a10.76 10.76 0 0 0-3.63 8.21ZM420.11 41.5l-8.76 23.93 20.74 18.49c1 .63 1.74 1.1 2.53 1.58a10.86 10.86 0 0 0 5.38 1.42 11.35 11.35 0 0 0 4.58-1 17.92 17.92 0 0 0 3-1.73v-.16a.56.56 0 0 0 .32-.16l25.4-22.69c.32-.32 1.42-1.42 3.32-3.16 1-.9 1.84-1.62 2.6-2.19L466 35.92l-26 23.37Z" transform="translate(-8.95 -19.81)"/><path class="cls-1" d="M500.46 69.5a10.28 10.28 0 0 0-3.15-7.42 11.14 11.14 0 0 0-8.69-3.79 11.47 11.47 0 0 0-7.44 2.49l19.28 29.1ZM574.73 51.31a10.49 10.49 0 0 0-5.84-1.58h-.32a10.49 10.49 0 0 0-9.63 5.69l-32.24 57.65a11.73 11.73 0 0 0-1.42 5.68 11.59 11.59 0 0 0 3.32 8.25 11.71 11.71 0 0 0 8.53 3.64 12.1 12.1 0 0 0 6.15-1.74 12.28 12.28 0 0 0 4.43-4.58l32.08-57.65a11 11 0 0 0 1.1-4.9 12.49 12.49 0 0 0-.47-3.47 11.35 11.35 0 0 0-5.69-6.99Z" transform="translate(-8.95 -19.81)"/><path class="cls-1" d="M596.91 26.5a11.1 11.1 0 0 0-3.59-4.32 8.27 8.27 0 0 0-3.32-1.74 9.61 9.61 0 0 0-3.79-.63 11.33 11.33 0 0 0-6.63 2.05 11.43 11.43 0 0 0-4.1 4.58l-10.43 18.79a15.45 15.45 0 0 1 5.37-.95H572a15.57 15.57 0 0 1 5.84 1.72l.46.3a11.24 11.24 0 0 1 3 2.39 11.4 11.4 0 0 1 2.7 3.49L605.77 91l9.83-31ZM481.36 54.39a14.54 14.54 0 0 1 7.26-1.74 13.46 13.46 0 0 1 6.16 1.27 14.5 14.5 0 0 1 5.68 4.1V31.65a10.92 10.92 0 0 0-3-7.89 11.19 11.19 0 0 0-6.31-3.64 6.25 6.25 0 0 0-2.37-.31h-.47a5.83 5.83 0 0 0-1.58.16 10.74 10.74 0 0 0-3 .94 9.83 9.83 0 0 0-3.16 2.09 8.41 8.41 0 0 0-.79.63L466 35.92l13.19 19.91a19.56 19.56 0 0 1 2.17-1.44Z" transform="translate(-8.95 -19.81)"/><path d="m645.24 113-29-52-.59-1-9.88 31 .38.67L624.27 124a13.71 13.71 0 0 0 4.42 4.58 12.16 12.16 0 0 0 6.16 1.74 11.32 11.32 0 0 0 8.21-3.32 11.6 11.6 0 0 0 3.63-8.53 10 10 0 0 0-1.45-5.47Z" transform="translate(-8.95 -19.81)" style="fill:#2f4ea1"/></g></svg>